HIERARCHY
ROOT Hips
{
  OFFSET 1.44925e-005 102.336 -0.101585
  CHANNELS 6 Xposition Yposition Zposition Zrotation Xrotation Yrotation
  JOINT RightUpLeg
  {
    OFFSET -8.9458 -8.66707 0.101652
    CHANNELS 3 Zrotation Xrotation Yrotation
    JOINT RightLeg
    {
      OFFSET 0 -44.4227 1.3727
      CHANNELS 3 Zrotation Xrotation Yrotation
      JOINT RightFoot
      {
        OFFSET 0.253549 -42.0924 -1.46059
        CHANNELS 3 Zrotation Xrotation Yrotation
        JOINT RightToes
        {
          OFFSET 0.04 -4.41509 8.4991
          CHANNELS 3 Zrotation Xrotation Yrotation
          End Site
          {
            OFFSET -0.08 -0.137448 9.77979
          }
        }
      }
    }
  }
  JOINT Spine
  {
    OFFSET 0 11.8905 0
    CHANNELS 3 Zrotation Xrotation Yrotation
    JOINT Spine1
    {
      OFFSET 0 25.6574 0.127663
      CHANNELS 3 Zrotation Xrotation Yrotation
      JOINT HEad
      {
        OFFSET 0 8.73416 0.011341
        CHANNELS 3 Zrotation Xrotation Yrotation
        End Site
        {
          OFFSET -0.29 12.7742 2.51395
        }
      }
      JOINT LeftShoulder1
      {
        OFFSET 8.99 -0.362252 -0.22
        CHANNELS 3 Zrotation Xrotation Yrotation
        JOINT LeftArm
        {
          OFFSET 10.2827 -0.00337999 0.322123
          CHANNELS 3 Zrotation Xrotation Yrotation
          JOINT LeftForeArm
          {
            OFFSET 26.2597 0.099144 -1.42434
            CHANNELS 3 Zrotation Xrotation Yrotation
            JOINT LeftHand
            {
              OFFSET 22.0902 0.085362 1.02216
              CHANNELS 3 Zrotation Xrotation Yrotation
              End Site
              {
                OFFSET 13.419 -0.6 1.50291
              }
            }
          }
        }
      }
      JOINT RightShoulder
      {
        OFFSET -8.99 -0.362252 -0.22
        CHANNELS 3 Zrotation Xrotation Yrotation
        JOINT RightArm
        {
          OFFSET -10.2827 -0.00338 0.322123
          CHANNELS 3 Zrotation Xrotation Yrotation
          JOINT RightForeArm
          {
            OFFSET -26.364 0.099144 -1.42434
            CHANNELS 3 Zrotation Xrotation Yrotation
            JOINT RightHand
            {
              OFFSET -22.0324 0.085362 1.02216
              CHANNELS 3 Zrotation Xrotation Yrotation
              End Site
              {
                OFFSET -13.3284 -0.6 1.50291
              }
            }
          }
        }
      }
    }
  }
  JOINT LeftUpLeg
  {
    OFFSET 8.9458 -8.66707 0.101652
    CHANNELS 3 Zrotation Xrotation Yrotation
    JOINT LeftLeg
    {
      OFFSET 0 -44.4227 1.3727
      CHANNELS 3 Zrotation Xrotation Yrotation
      JOINT LeftFoot
      {
        OFFSET -0.253549 -42.0924 -1.46059
        CHANNELS 3 Zrotation Xrotation Yrotation
        JOINT LeftToes
        {
          OFFSET -0.04 -4.41509 8.4991
          CHANNELS 3 Zrotation Xrotation Yrotation
          End Site
          {
            OFFSET 0.08 -0.047448 9.77979
          }
        }
      }
    }
  }
}
MOTION
Frames:	14
Frame Time:	0.0333333
-3.22569 105.526 40.511 2.67169 7.51363 178.894 -7.84033 10.7151 -7.8185 1.38008 9.3524 -14.0675 12.7568 -8.20365 -0.123333 0.0462048 0.000530889 0.662642 1.66498 -4.04996 0.332627 1.21002 9.36243 -0.262262 -2.52287 -4.0166 -0.403426 -29.5999 1.7051 -1.27455 -48.7897 -18.3812 -14.6779 -12.052 37.4834 0.314861 2.41374 9.80062 -1.12299 39.2838 5.46056 7.98714 28.2183 -32.7156 -5.75352 3.81801 34.0727 10.1051 -27.5279 7.7386 3.7995 16.8402 5.91902 10.7313 -2.49131 12.5618 3.64385 -13.8844 -5.32587 0.301954 -1.25538e-009 8.75217e-006 -1.46653e-008 
-3.21623 105.542 40.544 2.65417 7.52525 178.946 -7.82925 10.7176 -7.81632 1.37768 9.34801 -14.1728 12.5953 -8.18265 -0.123326 0.0462048 0.000530889 0.662642 1.6362 -4.06105 0.308586 1.20404 9.35256 -0.286705 -2.41187 -4.02389 -0.437421 -29.5704 1.71385 -1.30298 -48.8296 -18.3927 -14.677 -12.0236 37.5774 0.27751 2.80356 9.77738 -1.21046 39.2561 5.46856 8.01193 28.2845 -32.7759 -5.67966 3.93823 33.8097 9.94052 -26.7818 7.96256 3.09089 16.8185 5.85424 10.735 -2.4874 12.6101 3.57939 -13.5898 -5.35023 0.293089 -1.25538e-009 8.75217e-006 -1.46653e-008 
-3.19963 105.562 40.6141 2.64315 7.55725 179.044 -7.798 10.728 -7.80877 1.38265 9.34747 -14.3455 12.3995 -8.15457 -0.123317 0.0462048 0.000530889 0.662642 1.61954 -3.95158 0.254395 1.15132 9.21547 -0.32923 -2.21103 -4.08562 -0.546363 -29.4862 1.72647 -1.3496 -48.8963 -18.4043 -14.6623 -11.9709 37.7839 0.190785 3.37954 9.74173 -1.35916 39.2437 5.47685 8.03329 28.3782 -32.8428 -5.55626 4.10181 33.517 9.70114 -25.8713 8.2355 2.17183 16.8123 5.74794 10.7498 -2.47527 12.6966 3.44569 -13.2024 -5.37942 0.282031 -1.25538e-009 8.75217e-006 -1.46653e-008 
-3.1855 105.57 40.7008 2.64799 7.60603 179.11 -7.77663 10.7255 -7.81147 1.4001 9.3827 -14.4301 12.3189 -8.1388 -0.123313 0.0462048 0.000530889 0.662642 1.64566 -3.65574 0.20733 1.04998 8.88884 -0.345808 -2.00848 -4.19632 -0.72281 -29.4014 1.7394 -1.39737 -48.9085 -18.406 -14.615 -11.9313 38.0708 0.0981477 3.61827 9.72565 -1.45809 39.3285 5.49766 8.05615 28.3406 -32.8205 -5.53834 4.17693 33.4207 9.61647 -25.5452 8.32979 1.83799 16.8281 5.68581 10.7607 -2.45979 12.7507 3.34845 -13.045 -5.36987 0.278659 -1.25538e-009 8.75217e-006 -1.46653e-008 
-3.17962 105.57 40.7855 2.64297 7.66524 179.101 -7.80246 10.6972 -7.83959 1.41795 9.46346 -14.3655 12.3395 -8.14068 -0.123313 0.0462048 0.000530889 0.662642 1.68116 -3.25634 0.198165 0.93993 8.44785 -0.313639 -1.86073 -4.27408 -0.893083 -29.3737 1.7549 -1.44479 -48.8291 -18.3892 -14.5525 -11.9434 38.313 0.0715233 3.5334 9.72924 -1.52117 39.5 5.53791 8.09806 28.1396 -32.7036 -5.69703 4.15145 33.4357 9.74135 -25.7311 8.27689 2.02411 16.8186 5.69977 10.7422 -2.44345 12.7437 3.36649 -13.0952 -5.32068 0.276941 -1.25538e-009 8.75217e-006 -1.46653e-008 
-3.17988 105.571 40.8674 2.63213 7.73324 179.057 -7.84551 10.6657 -7.8741 1.42874 9.55471 -14.2523 12.3571 -8.14537 -0.123315 0.0462048 0.000530889 0.662642 1.69627 -2.87011 0.2125 0.871708 8.03256 -0.266033 -1.78538 -4.26784 -1.00414 -29.3971 1.76993 -1.48389 -48.7196 -18.3504 -14.5201 -12.0023 38.3001 0.122011 3.43488 9.73289 -1.6259 39.6225 5.57445 8.14461 27.9659 -32.5906 -5.89429 4.10493 33.4271 9.89994 -25.9688 8.22641 2.18118 16.7869 5.73881 10.712 -2.42326 12.7326 3.43619 -13.132 -5.2741 0.275823 -1.25538e-009 8.75217e-006 -1.46653e-008 
-3.1778 105.572 40.9541 2.66982 7.81215 179.014 -7.82073 10.6698 -7.87265 1.4381 9.59256 -14.2068 12.3043 -8.12297 -0.124741 0.0462048 0.000530889 0.662642 1.70362 -2.54642 0.221157 0.893121 7.74298 -0.252229 -1.7908 -4.23006 -1.08794 -29.4433 1.77829 -1.50106 -48.6519 -18.3075 -14.5507 -12.059 37.9665 0.180127 3.30907 9.73751 -1.77619 39.5881 5.5862 8.17921 27.9759 -32.5487 -5.95365 4.095 33.4132 9.94401 -26.038 8.23684 2.11224 16.817 5.75571 10.7324 -2.40445 12.7805 3.43646 -13.0842 -5.2589 0.275244 -1.25538e-009 8.75217e-006 -1.46653e-008 
-3.16958 105.573 41.0451 2.77954 7.89713 178.945 -7.70275 10.7152 -7.8191 1.44531 9.54474 -14.2171 12.2054 -8.06011 -0.131203 0.0462048 0.000530889 0.662642 1.71162 -2.28664 0.225391 1.01648 7.59233 -0.274505 -1.87404 -4.23406 -1.16283 -29.5112 1.78278 -1.50428 -48.615 -18.2922 -14.6363 -12.0826 37.5652 0.204034 2.99663 9.75393 -1.94097 39.454 5.58632 8.21541 28.0819 -32.5059 -5.87827 4.10485 33.435 9.9498 -26.0094 8.25588 2.0347 16.9485 5.76655 10.8257 -2.39986 12.8746 3.36282 -13.0501 -5.26345 0.275128 -1.25538e-009 8.75217e-006 -1.46653e-008 
-3.16061 105.575 41.1333 2.90074 7.97296 178.827 -7.57328 10.7629 -7.74825 1.44069 9.45065 -14.2004 12.127 -7.98145 -0.139401 0.0462048 0.000530889 0.662642 1.70275 -2.08051 0.242517 1.17163 7.50983 -0.292354 -1.98633 -4.2657 -1.14131 -29.5862 1.79062 -1.51588 -48.5682 -18.3134 -14.7459 -12.0926 37.4574 0.237745 2.7158 9.76888 -2.12295 39.3505 5.59462 8.26132 28.1268 -32.379 -5.79322 4.10581 33.4406 10.0398 -25.9726 8.25684 2.04163 17.0948 5.79588 10.9304 -2.40858 12.955 3.32137 -13.0637 -5.26512 0.275393 -1.25538e-009 8.75217e-006 -1.46653e-008 
-3.15846 105.576 41.2175 2.96791 8.02809 178.705 -7.5146 10.774 -7.70904 1.43102 9.38488 -14.1342 12.0975 -7.92465 -0.14519 0.0462048 0.000530889 0.662642 1.68693 -1.88913 0.266379 1.24443 7.38603 -0.279552 -2.04514 -4.24721 -0.958531 -29.6059 1.79899 -1.53657 -48.5318 -18.3433 -14.8499 -12.1171 37.73 0.322613 2.78798 9.76178 -2.2807 39.3108 5.60146 8.28698 28.1295 -32.231 -5.74631 4.10654 33.4139 10.1516 -25.968 8.26335 2.01348 17.1607 5.82238 10.9817 -2.41212 12.9991 3.36254 -13.0627 -5.25978 0.275965 -1.25538e-009 8.75217e-006 -1.46653e-008 
-3.16464 105.577 41.3012 2.99444 8.06913 178.622 -7.51464 10.7496 -7.71547 1.43968 9.38406 -14.0513 12.0827 -7.89947 -0.147767 0.0462048 0.000530889 0.662642 1.70826 -1.66047 0.27706 1.19081 7.1617 -0.246058 -2.00254 -4.1211 -0.731847 -29.5218 1.80224 -1.55739 -48.5504 -18.3487 -14.9163 -12.1562 38.1176 0.424557 3.06521 9.74288 -2.31714 39.2845 5.59076 8.27077 28.191 -32.1838 -5.69726 4.13172 33.403 10.1434 -25.9561 8.28618 1.91328 17.1664 5.82226 10.9927 -2.40075 13.0323 3.42881 -13.0326 -5.254 0.276775 -1.25538e-009 8.75217e-006 -1.46653e-008 
-3.17639 105.577 41.3847 3.02458 8.11147 178.556 -7.52539 10.7115 -7.74826 1.47224 9.43148 -13.9522 12.0426 -7.88963 -0.149449 0.0462048 0.000530889 0.662642 1.77516 -1.39685 0.277379 1.05892 6.8816 -0.204252 -1.89025 -3.87511 -0.643815 -29.3489 1.80985 -1.6031 -48.612 -18.3119 -14.9122 -12.2027 38.31 0.494576 3.18115 9.73613 -2.26606 39.2653 5.57522 8.2421 28.2908 -32.2287 -5.64367 4.18754 33.3455 10.0333 -25.7834 8.32313 1.79625 17.1758 5.81375 11.007 -2.38496 13.076 3.47737 -13.0173 -5.24957 0.277751 -1.25538e-009 8.75217e-006 -1.46653e-008 
-3.19332 105.577 41.4664 3.05271 8.15686 178.465 -7.55102 10.6587 -7.78856 1.50603 9.50649 -13.8082 11.9917 -7.88628 -0.150702 0.0462048 0.000530889 0.662642 1.84727 -1.15491 0.28934 0.890348 6.63464 -0.145156 -1.78524 -3.54079 -0.705232 -29.1211 1.83605 -1.70983 -48.6828 -18.2289 -14.8361 -12.2613 38.2496 0.534661 3.11309 9.74046 -2.27318 39.297 5.57584 8.23488 28.3491 -32.258 -5.61668 4.26027 33.1289 9.95149 -25.4479 8.37118 1.67464 17.1797 5.81399 11.0193 -2.37235 13.1318 3.54613 -13.02 -5.24625 0.278822 -1.25538e-009 8.75217e-006 -1.46653e-008 
-3.21627 105.575 41.5482 3.0545 8.19279 178.357 -7.61005 10.5754 -7.82571 1.52187 9.60575 -13.6357 11.9691 -7.89262 -0.151638 0.0462048 0.000530889 0.662642 1.9076 -0.960859 0.320775 0.683361 6.45186 -0.0623064 -1.73948 -3.20779 -0.790313 -28.8611 1.87389 -1.85586 -48.7777 -18.1239 -14.7368 -12.3177 38.1371 0.557672 3.03788 9.74488 -2.32773 39.3823 5.58717 8.23655 28.3801 -32.2395 -5.58707 4.33598 32.8924 9.90057 -25.3033 8.39185 1.62138 17.1428 5.79902 11.0036 -2.35463 13.2051 3.66091 -13.0114 -5.24891 0.279917 -1.25538e-009 8.75217e-006 -1.46653e-008 
